<?xml version="1.0" encoding="UTF-8" standalone="no"?>
<!-- Created with Inkscape (http://www.inkscape.org/) -->

<svg
   width="210mm"
   height="297mm"
   viewBox="0 0 210 297"
   version="1.1"
   id="svg5"
   xml:space="preserve"
   inkscape:version="1.2.1 (9c6d41e410, 2022-07-14)"
   sodipodi:docname="pt-react-inkscape.svg"
   xmlns:inkscape="http://www.inkscape.org/namespaces/inkscape"
   xmlns:sodipodi="http://sodipodi.sourceforge.net/DTD/sodipodi-0.dtd"
   xmlns:xlink="http://www.w3.org/1999/xlink"
   xmlns="http://www.w3.org/2000/svg"
   xmlns:svg="http://www.w3.org/2000/svg"><sodipodi:namedview
     id="namedview7"
     pagecolor="#505050"
     bordercolor="#eeeeee"
     borderopacity="1"
     inkscape:showpageshadow="0"
     inkscape:pageopacity="0"
     inkscape:pagecheckerboard="0"
     inkscape:deskcolor="#505050"
     inkscape:document-units="mm"
     showgrid="false"
     inkscape:zoom="1.0129245"
     inkscape:cx="238.41856"
     inkscape:cy="452.64972"
     inkscape:window-width="1920"
     inkscape:window-height="991"
     inkscape:window-x="-9"
     inkscape:window-y="-9"
     inkscape:window-maximized="1"
     inkscape:current-layer="layer1" /><defs
     id="defs2" /><g
     inkscape:label="Layer 1"
     inkscape:groupmode="layer"
     id="layer1"><image
       width="67.73333"
       height="67.73333"
       preserveAspectRatio="none"
       xlink:href="../../../../../Downloads/Paratext_9.ico"
       id="image71"
       x="78.801247"
       y="93.94677"
       style="display:none"
       sodipodi:insensitive="true" /><circle
       style="display:none;fill:none;stroke:#ffffff;stroke-width:4.396;stroke-dasharray:none;stroke-opacity:1"
       id="path335"
       cx="110.40533"
       cy="129.98367"
       r="29.498045"
       inkscape:label="Circle"
       sodipodi:insensitive="true" /><path
       style="fill:#ffffff;stroke:none;stroke-width:2.596;stroke-dasharray:none;stroke-opacity:0.492754"
       d="m 94.936566,156.53451 -0.09235,-3.23228 8.034514,-16.06902 36.57089,-38.694964 2.58583,14.499064 -36.66325,26.13526 z"
       id="path1115"
       sodipodi:nodetypes="ccccccc"
       inkscape:label="Feather"
       sodipodi:insensitive="true" /><path
       id="circle1278"
       style="color:#000000;fill:#ffffff"
       d="M 110.40618 98.287024 C 92.927009 98.287023 78.708894 112.50515 78.708891 129.98431 C 78.708889 140.24373 83.608847 149.37721 91.189783 155.17347 C 91.163597 154.2764 91.137432 153.37924 91.111235 152.48217 C 91.470174 151.76531 91.828803 151.04829 92.187655 150.33139 C 86.61069 145.33709 83.10552 138.07911 83.105522 129.98431 C 83.105524 114.88092 95.302779 102.68365 110.40618 102.68365 C 116.16301 102.68366 121.49657 104.45683 125.89412 107.48646 C 126.90507 106.41657 127.91608 105.34674 128.92701 104.27684 C 123.71391 100.51029 117.31557 98.287025 110.40618 98.287024 z M 140.12013 118.95088 C 138.87956 119.83525 137.63897 120.71959 136.39839 121.60395 C 137.24591 124.24371 137.70529 127.05901 137.70529 129.98431 C 137.70529 145.08772 125.50959 157.28342 110.40618 157.28342 C 106.73103 157.28342 103.22876 156.55931 100.03162 155.24892 C 99.271876 156.51321 98.512438 157.77769 97.75269 159.04197 C 101.63082 160.73684 105.91 161.67954 110.40618 161.67954 C 127.88535 161.67953 142.10141 147.4635 142.1014 129.98431 C 142.1014 126.10579 141.40038 122.38856 140.12013 118.95088 z "
       inkscape:export-filename="pt-react-1024.png"
       inkscape:export-xdpi="410.29449"
       inkscape:export-ydpi="410.29449" /></g></svg>
