<?xml version="1.0" encoding="UTF-8" standalone="no"?>
<!-- Created with Inkscape (http://www.inkscape.org/) -->

<svg
   width="63.392509mm"
   height="63.392509mm"
   viewBox="0 0 63.392509 63.392509"
   version="1.1"
   id="svg5"
   xml:space="preserve"
   xmlns:xlink="http://www.w3.org/1999/xlink"
   xmlns="http://www.w3.org/2000/svg"
   xmlns:svg="http://www.w3.org/2000/svg"><defs
     id="defs2" /><g
     id="layer1"
     style="display:inline"
     transform="translate(-78.708887,-98.287023)"><image
       width="67.73333"
       height="67.73333"
       preserveAspectRatio="none"
       xlink:href="../../../../../Downloads/Paratext_9.ico"
       id="image71"
       x="78.801247"
       y="93.94677"
       style="display:none" /><g
       id="g4578"
       style="display:none"><path
         id="circle1278"
         style="color:#000000;fill:#ffffff"
         d="m 110.40618,98.287024 c -17.479171,-10e-7 -31.697286,14.218126 -31.697289,31.697286 -2e-6,10.25942 4.899956,19.3929 12.480892,25.18916 -0.02619,-0.89707 -0.05235,-1.79423 -0.07855,-2.6913 0.358939,-0.71686 0.717568,-1.43388 1.07642,-2.15078 -5.576965,-4.9943 -9.082135,-12.25228 -9.082133,-20.34708 2e-6,-15.10339 12.197257,-27.30066 27.30066,-27.30066 5.75683,1e-5 11.09039,1.77318 15.48794,4.80281 1.01095,-1.06989 2.02196,-2.13972 3.03289,-3.20962 -5.2131,-3.76655 -11.61144,-5.989815 -18.52083,-5.989816 z m 29.71395,20.663856 c -1.24057,0.88437 -2.48116,1.76871 -3.72174,2.65307 0.84752,2.63976 1.3069,5.45506 1.3069,8.38036 0,15.10341 -12.1957,27.29911 -27.29911,27.29911 -3.67515,0 -7.17742,-0.72411 -10.37456,-2.0345 -0.759744,1.26429 -1.519182,2.52877 -2.27893,3.79305 3.87813,1.69487 8.15731,2.63757 12.65349,2.63757 17.47917,-1e-5 31.69523,-14.21604 31.69522,-31.69523 0,-3.87852 -0.70102,-7.59575 -1.98127,-11.03343 z" /><path
         style="display:inline;fill:#ffffff;fill-opacity:1;stroke:none;stroke-width:2.596;stroke-dasharray:none;stroke-opacity:0.492754"
         d="m 94.936566,156.53451 -0.09235,-3.23228 8.034514,-16.06902 36.57089,-38.694964 2.58583,14.499064 -36.66325,26.13526 z"
         id="path239" /></g><g
       id="g249"
       style="display:none"><path
         id="path1115"
         style="fill:#ffffff;stroke:none;stroke-width:2.596;stroke-dasharray:none;stroke-opacity:0.492754"
         d="m 93.908,157.20385 v -3.23251 l 42.86345,-55.433094 5.264,14.499064 -34.26213,27.79758 z" /><path
         id="circle6777"
         style="color:#000000;fill:#ffffff"
         d="m 110.40618,98.287024 c -17.479172,0 -31.697289,14.218116 -31.697289,31.697286 0,9.55893 4.252315,18.142 10.964705,23.95771 v -1.42626 c 0.677163,-0.87537 1.354247,-1.75082 2.031401,-2.6262 -5.296043,-4.97576 -8.599475,-12.04627 -8.599475,-19.90525 0,-15.10339 12.197256,-27.30066 27.300658,-27.30066 5.36051,0 10.35391,1.53805 14.56655,4.19561 0.89541,-1.15769 1.79073,-2.31548 2.68614,-3.47317 -4.96776,-3.23587 -10.89386,-5.119066 -17.25269,-5.119066 z M 140.4214,119.7932 c -1.22522,0.99427 -2.45051,1.98851 -3.67574,2.98277 0.62443,2.29568 0.95963,4.71191 0.95963,7.20834 0,15.10341 -12.1957,27.29911 -27.29911,27.29911 -3.36936,0 -6.59352,-0.60852 -9.57047,-1.71927 -0.994321,1.17345 -1.987489,2.3479 -2.980184,3.52278 3.850854,1.66663 8.094254,2.59261 12.550654,2.59261 17.47917,0 31.69522,-14.21604 31.69522,-31.69523 0,-3.56357 -0.59103,-6.99148 -1.68,-10.19111 z" /></g><g
       id="g305"
       style="display:inline"><path
         id="path301"
         style="fill:#ffffff;stroke:none;stroke-width:2.596;stroke-dasharray:none;stroke-opacity:0.492754"
         d="m 88.849933,153.23977 v -3.23251 l 46.835497,-51.549594 5.29687,14.176624 -37.82839,25.29855 z" /><path
         id="circle307"
         style="color:#000000;fill:#ffffff;-inkscape-stroke:none"
         d="m 110.40618,98.287024 c -17.479172,0 -31.697289,14.218116 -31.697289,31.697286 0,7.04318 2.30976,13.55568 6.209957,18.82263 0.997159,-1.09749 2.008639,-2.21 3.007568,-3.30936 -3.040415,-4.40245 -4.820894,-9.74525 -4.820894,-15.51327 0,-15.10339 12.197256,-27.30066 27.300658,-27.30066 4.83264,0 9.3665,1.25054 13.29945,3.44372 1.00412,-1.10487 2.00709,-2.20922 3.01015,-3.31297 -4.76758,-2.87272 -10.34853,-4.527376 -16.3096,-4.527376 z m 29.31501,19.649446 c -1.24294,0.83139 -2.48604,1.66251 -3.72897,2.49391 1.10683,2.97234 1.71307,6.19082 1.71307,9.55393 0,15.10341 -12.1957,27.29911 -27.29911,27.29911 -5.83461,0 -11.234651,-1.82124 -15.666226,-4.92579 -1.002774,1.0738 -2.004802,2.14824 -3.007052,3.22254 5.240852,3.83318 11.696598,6.09937 18.673278,6.09937 17.47917,0 31.69522,-14.21604 31.69522,-31.69523 0,-4.26324 -0.84772,-8.33158 -2.38021,-12.04784 z" /></g></g></svg>
