<?xml version="1.0" encoding="UTF-8" standalone="no"?>
<!-- Created with Inkscape (http://www.inkscape.org/) -->

<svg
   width="210mm"
   height="297mm"
   viewBox="0 0 210 297"
   version="1.1"
   id="svg5"
   xml:space="preserve"
   inkscape:version="1.2.1 (9c6d41e410, 2022-07-14)"
   sodipodi:docname="pt-react-inkscape.svg"
   xmlns:inkscape="http://www.inkscape.org/namespaces/inkscape"
   xmlns:sodipodi="http://sodipodi.sourceforge.net/DTD/sodipodi-0.dtd"
   xmlns:xlink="http://www.w3.org/1999/xlink"
   xmlns="http://www.w3.org/2000/svg"
   xmlns:svg="http://www.w3.org/2000/svg"><sodipodi:namedview
     id="namedview7"
     pagecolor="#505050"
     bordercolor="#eeeeee"
     borderopacity="1"
     inkscape:showpageshadow="0"
     inkscape:pageopacity="0"
     inkscape:pagecheckerboard="0"
     inkscape:deskcolor="#505050"
     inkscape:document-units="mm"
     showgrid="false"
     inkscape:zoom="2.3252449"
     inkscape:cx="353.29612"
     inkscape:cy="468.12274"
     inkscape:window-width="1920"
     inkscape:window-height="991"
     inkscape:window-x="-9"
     inkscape:window-y="-9"
     inkscape:window-maximized="1"
     inkscape:current-layer="g305" /><defs
     id="defs2" /><g
     inkscape:label="Layer 1"
     inkscape:groupmode="layer"
     id="layer1"
     style="display:inline"><image
       width="67.73333"
       height="67.73333"
       preserveAspectRatio="none"
       xlink:href="../../../../../Downloads/Paratext_9.ico"
       id="image71"
       x="78.801247"
       y="93.94677"
       style="display:none"
       sodipodi:insensitive="true" /><g
       id="g4578"
       inkscape:label="first"
       style="display:none"><path
         id="circle1278"
         style="color:#000000;fill:#ffffff"
         d="m 110.40618,98.287024 c -17.479171,-10e-7 -31.697286,14.218126 -31.697289,31.697286 -2e-6,10.25942 4.899956,19.3929 12.480892,25.18916 -0.02619,-0.89707 -0.05235,-1.79423 -0.07855,-2.6913 0.358939,-0.71686 0.717568,-1.43388 1.07642,-2.15078 -5.576965,-4.9943 -9.082135,-12.25228 -9.082133,-20.34708 2e-6,-15.10339 12.197257,-27.30066 27.30066,-27.30066 5.75683,1e-5 11.09039,1.77318 15.48794,4.80281 1.01095,-1.06989 2.02196,-2.13972 3.03289,-3.20962 -5.2131,-3.76655 -11.61144,-5.989815 -18.52083,-5.989816 z m 29.71395,20.663856 c -1.24057,0.88437 -2.48116,1.76871 -3.72174,2.65307 0.84752,2.63976 1.3069,5.45506 1.3069,8.38036 0,15.10341 -12.1957,27.29911 -27.29911,27.29911 -3.67515,0 -7.17742,-0.72411 -10.37456,-2.0345 -0.759744,1.26429 -1.519182,2.52877 -2.27893,3.79305 3.87813,1.69487 8.15731,2.63757 12.65349,2.63757 17.47917,-1e-5 31.69523,-14.21604 31.69522,-31.69523 0,-3.87852 -0.70102,-7.59575 -1.98127,-11.03343 z"
         inkscape:export-filename="pt-react-1024.png"
         inkscape:export-xdpi="410.29449"
         inkscape:export-ydpi="410.29449" /><path
         style="display:inline;fill:#ffffff;fill-opacity:1;stroke:none;stroke-width:2.596;stroke-dasharray:none;stroke-opacity:0.492754"
         d="m 94.936566,156.53451 -0.09235,-3.23228 8.034514,-16.06902 36.57089,-38.694964 2.58583,14.499064 -36.66325,26.13526 z"
         id="path239"
         sodipodi:nodetypes="ccccccc"
         inkscape:label="Feather" /></g><g
       id="g249"
       inkscape:label="second"
       style="display:none"><path
         id="path1115"
         style="fill:#ffffff;stroke:none;stroke-width:2.596;stroke-dasharray:none;stroke-opacity:0.492754"
         inkscape:label="Feather"
         d="m 93.908,157.20385 v -3.23251 l 42.86345,-55.433094 5.264,14.499064 -34.26213,27.79758 z"
         sodipodi:nodetypes="cccccc" /><path
         id="circle6777"
         style="color:#000000;fill:#ffffff"
         d="m 110.40618,98.287024 c -17.479172,0 -31.697289,14.218116 -31.697289,31.697286 0,9.55893 4.252315,18.142 10.964705,23.95771 v -1.42626 c 0.677163,-0.87537 1.354247,-1.75082 2.031401,-2.6262 -5.296043,-4.97576 -8.599475,-12.04627 -8.599475,-19.90525 0,-15.10339 12.197256,-27.30066 27.300658,-27.30066 5.36051,0 10.35391,1.53805 14.56655,4.19561 0.89541,-1.15769 1.79073,-2.31548 2.68614,-3.47317 -4.96776,-3.23587 -10.89386,-5.119066 -17.25269,-5.119066 z M 140.4214,119.7932 c -1.22522,0.99427 -2.45051,1.98851 -3.67574,2.98277 0.62443,2.29568 0.95963,4.71191 0.95963,7.20834 0,15.10341 -12.1957,27.29911 -27.29911,27.29911 -3.36936,0 -6.59352,-0.60852 -9.57047,-1.71927 -0.994321,1.17345 -1.987489,2.3479 -2.980184,3.52278 3.850854,1.66663 8.094254,2.59261 12.550654,2.59261 17.47917,0 31.69522,-14.21604 31.69522,-31.69523 0,-3.56357 -0.59103,-6.99148 -1.68,-10.19111 z"
         inkscape:export-filename="pt-react.svg"
         inkscape:export-xdpi="102.57362"
         inkscape:export-ydpi="102.57362" /></g><g
       id="g6046"
       inkscape:label="original"><circle
         style="display:none;fill:none;stroke:#ffffff;stroke-width:4.396;stroke-dasharray:none;stroke-opacity:1"
         id="path335"
         cx="110.40533"
         cy="129.98367"
         r="29.498045"
         inkscape:label="Circle"
         sodipodi:insensitive="true" /></g><g
       id="g305"
       inkscape:label="third"
       style="display:inline"><path
         id="path301"
         style="fill:#ffffff;stroke:none;stroke-width:2.596;stroke-dasharray:none;stroke-opacity:0.492754"
         inkscape:label="Feather"
         d="m 88.849933,153.23977 v -3.23251 l 46.835497,-51.549594 5.29687,14.176624 -37.82839,25.29855 z"
         sodipodi:nodetypes="cccccc" /><path
         id="circle307"
         style="color:#000000;fill:#ffffff;-inkscape-stroke:none"
         d="M 110.40618 98.287024 C 92.927008 98.287024 78.708891 112.50514 78.708891 129.98431 C 78.708891 137.02749 81.018651 143.53999 84.918848 148.80694 C 85.916007 147.70945 86.927487 146.59694 87.926416 145.49758 C 84.886001 141.09513 83.105522 135.75233 83.105522 129.98431 C 83.105522 114.88092 95.302778 102.68365 110.40618 102.68365 C 115.23882 102.68365 119.77268 103.93419 123.70563 106.12737 C 124.70975 105.0225 125.71272 103.91815 126.71578 102.8144 C 121.9482 99.94168 116.36725 98.287024 110.40618 98.287024 z M 139.72119 117.93647 C 138.47825 118.76786 137.23515 119.59898 135.99222 120.43038 C 137.09905 123.40272 137.70529 126.6212 137.70529 129.98431 C 137.70529 145.08772 125.50959 157.28342 110.40618 157.28342 C 104.57157 157.28342 99.171529 155.46218 94.739954 152.35763 C 93.73718 153.43143 92.735152 154.50587 91.732902 155.58017 C 96.973754 159.41335 103.4295 161.67954 110.40618 161.67954 C 127.88535 161.67954 142.1014 147.4635 142.1014 129.98431 C 142.1014 125.72107 141.25368 121.65273 139.72119 117.93647 z "
         inkscape:export-filename="pt-react.svg"
         inkscape:export-xdpi="102.57362"
         inkscape:export-ydpi="102.57362" /></g></g></svg>
