<?xml version="1.0" encoding="UTF-8" standalone="no"?>
<!-- Created with Inkscape (http://www.inkscape.org/) -->

<svg
   width="63.392509mm"
   height="63.392509mm"
   viewBox="0 0 63.392509 63.392509"
   version="1.1"
   id="svg5"
   xml:space="preserve"
   inkscape:version="1.2.1 (9c6d41e410, 2022-07-14)"
   sodipodi:docname="pt-react-inkscape.svg"
   xmlns:inkscape="http://www.inkscape.org/namespaces/inkscape"
   xmlns:sodipodi="http://sodipodi.sourceforge.net/DTD/sodipodi-0.dtd"
   xmlns:xlink="http://www.w3.org/1999/xlink"
   xmlns="http://www.w3.org/2000/svg"
   xmlns:svg="http://www.w3.org/2000/svg"><sodipodi:namedview
     id="namedview7"
     pagecolor="#505050"
     bordercolor="#eeeeee"
     borderopacity="1"
     inkscape:showpageshadow="0"
     inkscape:pageopacity="0"
     inkscape:pagecheckerboard="0"
     inkscape:deskcolor="#505050"
     inkscape:document-units="mm"
     showgrid="false"
     inkscape:zoom="1.0129245"
     inkscape:cx="238.41856"
     inkscape:cy="452.64972"
     inkscape:window-width="1920"
     inkscape:window-height="991"
     inkscape:window-x="-9"
     inkscape:window-y="-9"
     inkscape:window-maximized="1"
     inkscape:current-layer="layer1" /><defs
     id="defs2" /><g
     inkscape:label="Layer 1"
     inkscape:groupmode="layer"
     id="layer1"
     transform="translate(-78.708887,-98.287023)"><image
       width="67.73333"
       height="67.73333"
       preserveAspectRatio="none"
       xlink:href="../../../../../Downloads/Paratext_9.ico"
       id="image71"
       x="78.801247"
       y="93.94677"
       style="display:none"
       sodipodi:insensitive="true" /><circle
       style="display:none;fill:none;stroke:#ffffff;stroke-width:4.396;stroke-dasharray:none;stroke-opacity:1"
       id="path335"
       cx="110.40533"
       cy="129.98367"
       r="29.498045"
       inkscape:label="Circle"
       sodipodi:insensitive="true" /><path
       style="fill:#ffffff;stroke:none;stroke-width:2.596;stroke-dasharray:none;stroke-opacity:0.492754"
       d="m 94.936566,156.53451 -0.09235,-3.23228 8.034514,-16.06902 36.57089,-38.694964 2.58583,14.499064 -36.66325,26.13526 z"
       id="path1115"
       sodipodi:nodetypes="ccccccc"
       inkscape:label="Feather"
       sodipodi:insensitive="true" /><path
       id="circle1278"
       style="color:#000000;fill:#ffffff"
       d="m 110.40618,98.287024 c -17.479171,-10e-7 -31.697286,14.218126 -31.697289,31.697286 -2e-6,10.25942 4.899956,19.3929 12.480892,25.18916 -0.02619,-0.89707 -0.05235,-1.79423 -0.07855,-2.6913 0.358939,-0.71686 0.717568,-1.43388 1.07642,-2.15078 -5.576965,-4.9943 -9.082135,-12.25228 -9.082133,-20.34708 2e-6,-15.10339 12.197257,-27.30066 27.30066,-27.30066 5.75683,1e-5 11.09039,1.77318 15.48794,4.80281 1.01095,-1.06989 2.02196,-2.13972 3.03289,-3.20962 -5.2131,-3.76655 -11.61144,-5.989815 -18.52083,-5.989816 z m 29.71395,20.663856 c -1.24057,0.88437 -2.48116,1.76871 -3.72174,2.65307 0.84752,2.63976 1.3069,5.45506 1.3069,8.38036 0,15.10341 -12.1957,27.29911 -27.29911,27.29911 -3.67515,0 -7.17742,-0.72411 -10.37456,-2.0345 -0.759744,1.26429 -1.519182,2.52877 -2.27893,3.79305 3.87813,1.69487 8.15731,2.63757 12.65349,2.63757 17.47917,-1e-5 31.69523,-14.21604 31.69522,-31.69523 0,-3.87852 -0.70102,-7.59575 -1.98127,-11.03343 z" /></g></svg>
